<mxfile host="65bd71144e">
    <diagram id="cZVjLHJc_EZDeIkEfL1_" name="Page-1">
        <mxGraphModel dx="1681" dy="1767" grid="1" gridSize="10" guides="1" tooltips="1" connect="1" arrows="1" fold="1" page="1" pageScale="1" pageWidth="827" pageHeight="1169" background="#ffffff" math="0" shadow="0">
            <root>
                <mxCell id="0"/>
                <mxCell id="1" parent="0"/>
                <mxCell id="14" value="Vertical Container" style="swimlane;strokeColor=#000000;" vertex="1" parent="1">
                    <mxGeometry x="-80" y="-100" width="770" height="620" as="geometry"/>
                </mxCell>
                <mxCell id="15" value="" style="shape=process;whiteSpace=wrap;html=1;backgroundOutline=1;fillColor=#fad9d5;strokeColor=#ae4132;" vertex="1" parent="14">
                    <mxGeometry y="20" width="770" height="100" as="geometry"/>
                </mxCell>
                <mxCell id="18" value="" style="ellipse;whiteSpace=wrap;html=1;aspect=fixed;" vertex="1" parent="14">
                    <mxGeometry x="80" y="30" width="80" height="80" as="geometry"/>
                </mxCell>
                <mxCell id="19" value="&lt;h1&gt;&lt;b&gt;&lt;font color=&quot;#000000&quot;&gt;H1 - HEADER&lt;/font&gt;&lt;/b&gt;&lt;/h1&gt;" style="text;html=1;strokeColor=none;fillColor=none;align=center;verticalAlign=middle;whiteSpace=wrap;rounded=0;" vertex="1" parent="14">
                    <mxGeometry x="190" y="55" width="160" height="30" as="geometry"/>
                </mxCell>
                <mxCell id="36" value="" style="shape=ext;double=1;whiteSpace=wrap;html=1;aspect=fixed;fontColor=#000000;strokeColor=#000000;" vertex="1" parent="14">
                    <mxGeometry x="610" y="45" width="50" height="50" as="geometry"/>
                </mxCell>
                <mxCell id="38" value="" style="shape=ext;double=1;whiteSpace=wrap;html=1;aspect=fixed;fontColor=#000000;strokeColor=#000000;" vertex="1" parent="14">
                    <mxGeometry x="550" y="45" width="50" height="50" as="geometry"/>
                </mxCell>
                <mxCell id="37" value="" style="shape=ext;double=1;whiteSpace=wrap;html=1;aspect=fixed;fontColor=#000000;strokeColor=#000000;" vertex="1" parent="14">
                    <mxGeometry x="490" y="45" width="50" height="50" as="geometry"/>
                </mxCell>
                <mxCell id="39" value="" style="swimlane;startSize=0;fillColor=#ffcc99;strokeColor=#36393d;" vertex="1" parent="14">
                    <mxGeometry x="79" y="160" width="610" height="180" as="geometry"/>
                </mxCell>
                <mxCell id="40" value="Sobre mim" style="text;strokeColor=none;fillColor=none;html=1;fontSize=24;fontStyle=1;verticalAlign=middle;align=center;fontColor=#000000;" vertex="1" parent="39">
                    <mxGeometry x="240" width="100" height="40" as="geometry"/>
                </mxCell>
                <mxCell id="41" value="&lt;span style=&quot;font-family: &amp;#34;times new roman&amp;#34; ; font-size: medium ; font-weight: 400&quot;&gt;Lorem ipsum dolor sit amet consectetur adipisicing elit.&lt;/span&gt;&lt;br style=&quot;font-family: &amp;#34;times new roman&amp;#34; ; font-size: medium ; font-weight: 400&quot;&gt;&lt;span style=&quot;font-family: &amp;#34;times new roman&amp;#34; ; font-size: medium ; font-weight: 400&quot;&gt;Repellendus maiores voluptatibus sapiente laborum, quidem odio atque similique,&lt;/span&gt;&lt;br style=&quot;font-family: &amp;#34;times new roman&amp;#34; ; font-size: medium ; font-weight: 400&quot;&gt;&lt;span style=&quot;font-family: &amp;#34;times new roman&amp;#34; ; font-size: medium ; font-weight: 400&quot;&gt;laudantium itaque consectetur suscipit adipisci possimus voluptatum eligendi soluta natus,&lt;/span&gt;&lt;br style=&quot;font-family: &amp;#34;times new roman&amp;#34; ; font-size: medium ; font-weight: 400&quot;&gt;&lt;span style=&quot;font-family: &amp;#34;times new roman&amp;#34; ; font-size: medium ; font-weight: 400&quot;&gt;vero tenetur neque?&lt;/span&gt;" style="text;strokeColor=none;fillColor=none;html=1;fontSize=24;fontStyle=1;verticalAlign=middle;align=center;fontColor=#000000;" vertex="1" parent="39">
                    <mxGeometry x="240" y="100" width="100" height="40" as="geometry"/>
                </mxCell>
                <mxCell id="43" value="" style="shape=singleArrow;direction=south;whiteSpace=wrap;html=1;fontColor=#000000;strokeColor=#000000;" vertex="1" parent="39">
                    <mxGeometry x="285" y="40" width="20" height="20" as="geometry"/>
                </mxCell>
                <mxCell id="44" value="Container" style="swimlane;fontColor=#000000;strokeColor=#000000;" vertex="1" parent="14">
                    <mxGeometry x="79" y="350" width="200" height="200" as="geometry"/>
                </mxCell>
                <mxCell id="49" value="Objetivos" style="text;strokeColor=none;fillColor=none;html=1;fontSize=24;fontStyle=1;verticalAlign=middle;align=center;fontColor=#000000;" vertex="1" parent="44">
                    <mxGeometry x="50" y="20" width="100" height="40" as="geometry"/>
                </mxCell>
                <mxCell id="55" value="aaaaaaaaaaaaaaaaaaaaaaaaa&lt;br&gt;aaaaaaaaaaaaaaaaaaaaaaaa&lt;br&gt;aaaaaaaaaaaaaaaaaaaaaaaaa&lt;br&gt;aaaaaaaaaaaaaaaaaaaaaaaaa&lt;br&gt;aaaaaaaaaaaaaaaaaaaaaaaaa" style="text;strokeColor=none;fillColor=none;align=left;verticalAlign=middle;rounded=0;fontColor=#000000;html=1;whiteSpace=wrap;labelBackgroundColor=none;labelBorderColor=none;" vertex="1" parent="44">
                    <mxGeometry x="10" y="85" width="180" height="30" as="geometry"/>
                </mxCell>
                <mxCell id="46" value="Container" style="swimlane;fontColor=#000000;strokeColor=#000000;" vertex="1" parent="14">
                    <mxGeometry x="489" y="350" width="200" height="200" as="geometry"/>
                </mxCell>
                <mxCell id="51" value="Hobbies" style="text;strokeColor=none;fillColor=none;html=1;fontSize=24;fontStyle=1;verticalAlign=middle;align=center;fontColor=#000000;" vertex="1" parent="46">
                    <mxGeometry x="50" y="20" width="100" height="40" as="geometry"/>
                </mxCell>
                <mxCell id="56" value="&lt;span style=&quot;text-align: left&quot;&gt;aaaaaaaaaaaaaaaaaaaaaaaaa&lt;/span&gt;&lt;br style=&quot;text-align: left&quot;&gt;&lt;span style=&quot;text-align: left&quot;&gt;aaaaaaaaaaaaaaaaaaaaaaaa&lt;/span&gt;&lt;br style=&quot;text-align: left&quot;&gt;&lt;span style=&quot;text-align: left&quot;&gt;aaaaaaaaaaaaaaaaaaaaaaaaa&lt;/span&gt;&lt;br style=&quot;text-align: left&quot;&gt;&lt;span style=&quot;text-align: left&quot;&gt;aaaaaaaaaaaaaaaaaaaaaaaaa&lt;/span&gt;&lt;br style=&quot;text-align: left&quot;&gt;&lt;span style=&quot;text-align: left&quot;&gt;aaaaaaaaaaaaaaaaaaaaaaaaa&lt;/span&gt;" style="text;html=1;strokeColor=none;fillColor=none;align=center;verticalAlign=middle;whiteSpace=wrap;rounded=0;labelBackgroundColor=none;labelBorderColor=none;fontColor=#000000;" vertex="1" parent="46">
                    <mxGeometry x="70" y="90" width="60" height="30" as="geometry"/>
                </mxCell>
                <mxCell id="45" value="Container" style="swimlane;fontColor=#000000;strokeColor=#000000;" vertex="1" parent="14">
                    <mxGeometry x="279" y="350" width="211" height="200" as="geometry"/>
                </mxCell>
                <mxCell id="50" value="Title" style="text;strokeColor=none;fillColor=none;html=1;fontSize=24;fontStyle=1;verticalAlign=middle;align=center;fontColor=#000000;" vertex="1" parent="45">
                    <mxGeometry x="56" y="20" width="100" height="40" as="geometry"/>
                </mxCell>
                <mxCell id="59" value="" style="shape=ext;double=1;whiteSpace=wrap;html=1;aspect=fixed;rounded=0;labelBackgroundColor=none;labelBorderColor=none;fontColor=#000000;strokeColor=#000000;fillColor=none;" vertex="1" parent="45">
                    <mxGeometry x="11" y="60" width="61" height="61" as="geometry"/>
                </mxCell>
                <mxCell id="60" value="" style="shape=ext;double=1;whiteSpace=wrap;html=1;aspect=fixed;rounded=0;labelBackgroundColor=none;labelBorderColor=none;fontColor=#000000;strokeColor=#000000;fillColor=none;" vertex="1" parent="45">
                    <mxGeometry x="140" y="129" width="61" height="61" as="geometry"/>
                </mxCell>
                <mxCell id="16" style="edgeStyle=none;html=1;" edge="1" parent="1" source="15">
                    <mxGeometry relative="1" as="geometry">
                        <mxPoint x="790" y="100" as="targetPoint"/>
                    </mxGeometry>
                </mxCell>
                <mxCell id="42" style="edgeStyle=none;html=1;fontColor=#000000;" edge="1" parent="1" source="39">
                    <mxGeometry relative="1" as="geometry">
                        <mxPoint x="415" y="380.0000000000001" as="targetPoint"/>
                    </mxGeometry>
                </mxCell>
            </root>
        </mxGraphModel>
    </diagram>
</mxfile>